# xmcd
#
# Track frame offsets: 
#        150
#        11408
#        21683
#        32033
#        42208
#        53483
#        64158
#        75158
#        86708
#        99258
#        111233
#        122808
#        134508
#        146433
#        157833
#        171158
#        184733
#        197633
#        210658
#        223570
#        236433
#        247008
#        258508
#        270558
#        282333
#
# Disc length: 3906 seconds
#
# Revision: 2
# Processed by: cddbd v1.5.2PL0 Copyright (c) Steve Scherf et al.
# Submitted via: ExactAudioCopy v0.95b4
#
DISCID=5e0f4019
DTITLE=Robert Johnson - Robert Johnson, The Story
DYEAR=1989
DGENRE=Blues
TTITLE0=Kind hearted woman blues
TTITLE1=Little Queen of Spades
TTITLE2=Milkcow's calf blues
TTITLE3=Honeymoon blues
TTITLE4=Walking blues
TTITLE5=From four till late
TTITLE6=Love in vain
TTITLE7=I'm a steady rolling man
TTITLE8=Travelling riverside blues
TTITLE9=Phonograph blues
TTITLE10=Dead shrimp blues
TTITLE11=If I had possession over Judgement Day
TTITLE12=When you got a good friend
TTITLE13=Crossroad blues
TTITLE14=They're red hot
TTITLE15=Terraplane blues
TTITLE16=Come on in my kitchen
TTITLE17=32-20 blues
TTITLE18=Preaching blues
TTITLE19=Rambling on my mind
TTITLE20=Stop breakin' down rules
TTITLE21=Me and the devil blues
TTITLE22=Last fair deal gone down
TTITLE23=Hellhound on my trail
TTITLE24=Drunken hearted man
EXTD=
EXTT0=
EXTT1=
EXTT2=
EXTT3=
EXTT4=
EXTT5=
EXTT6=
EXTT7=
EXTT8=
EXTT9=
EXTT10=
EXTT11=
EXTT12=
EXTT13=
EXTT14=
EXTT15=
EXTT16=
EXTT17=
EXTT18=
EXTT19=
EXTT20=
EXTT21=
EXTT22=
EXTT23=
EXTT24=
PLAYORDER=
